<svg width="512" height="512" viewBox="0 0 512 512" fill="none" xmlns="http://www.w3.org/2000/svg">
    <g clip-path="url(#clip0_526_2)">
        <rect width="512" height="512" fill="black"/>
        <path d="M207.5 47V431H141.25V47H207.5ZM197 286H177.5C177.5 267.167 180 249.833 185 234C190 218.167 197.083 204.417 206.25 192.75C215.417 180.917 226.333 171.75 239 165.25C251.833 158.75 266 155.5 281.5 155.5C294.833 155.5 306.917 157.417 317.75 161.25C328.75 164.917 338.167 170.833 346 179C353.833 187.167 359.833 197.833 364 211C368.333 224 370.5 239.833 370.5 258.5V431H304V258C304 245.5 302.167 235.667 298.5 228.5C294.833 221.167 289.583 215.917 282.75 212.75C276.083 209.583 267.833 208 258 208C247.333 208 238.167 210.083 230.5 214.25C222.833 218.25 216.5 223.833 211.5 231C206.667 238.167 203 246.417 200.5 255.75C198.167 265.083 197 275.167 197 286Z" fill="white"/>
    </g>
    <defs>
        <clipPath id="clip0_526_2">
            <rect width="512" height="512" fill="white"/>
        </clipPath>
    </defs>
</svg>
