<svg width="2500" height="800" viewBox="0 0 2500 800" fill="none" xmlns="http://www.w3.org/2000/svg">
    <rect width="2500" height="800" fill="black"/>
    <path d="M342.5 191V575H276.25V191H342.5ZM332 430H312.5C312.5 411.167 315 393.833 320 378C325 362.167 332.083 348.417 341.25 336.75C350.417 324.917 361.333 315.75 374 309.25C386.833 302.75 401 299.5 416.5 299.5C429.833 299.5 441.917 301.417 452.75 305.25C463.75 308.917 473.167 314.833 481 323C488.833 331.167 494.833 341.833 499 355C503.333 368 505.5 383.833 505.5 402.5V575H439V402C439 389.5 437.167 379.667 433.5 372.5C429.833 365.167 424.583 359.917 417.75 356.75C411.083 353.583 402.833 352 393 352C382.333 352 373.167 354.083 365.5 358.25C357.833 362.25 351.5 367.833 346.5 375C341.667 382.167 338 390.417 335.5 399.75C333.167 409.083 332 419.167 332 430ZM712.75 517.5V392.75C712.75 383.583 711.167 375.667 708 369C704.833 362.333 700 357.167 693.5 353.5C687 349.833 678.75 348 668.75 348C659.917 348 652.167 349.5 645.5 352.5C639 355.5 634 359.75 630.5 365.25C627 370.583 625.25 376.75 625.25 383.75H559C559 372.583 561.667 362 567 352C572.333 341.833 579.917 332.833 589.75 325C599.75 317 611.667 310.75 625.5 306.25C639.5 301.75 655.167 299.5 672.5 299.5C693 299.5 711.25 303 727.25 310C743.417 316.833 756.083 327.167 765.25 341C774.583 354.833 779.25 372.25 779.25 393.25V511.25C779.25 524.75 780.083 536.333 781.75 546C783.583 555.5 786.25 563.75 789.75 570.75V575H722.5C719.333 568.167 716.917 559.5 715.25 549C713.583 538.333 712.75 527.833 712.75 517.5ZM722 410.25L722.5 449.5H680.75C670.417 449.5 661.333 450.583 653.5 452.75C645.667 454.75 639.25 457.75 634.25 461.75C629.25 465.583 625.5 470.25 623 475.75C620.5 481.083 619.25 487.167 619.25 494C619.25 500.667 620.75 506.667 623.75 512C626.917 517.333 631.417 521.583 637.25 524.75C643.25 527.75 650.25 529.25 658.25 529.25C669.917 529.25 680.083 526.917 688.75 522.25C697.417 517.417 704.167 511.583 709 504.75C713.833 497.917 716.417 491.417 716.75 485.25L735.75 513.75C733.417 520.583 729.917 527.833 725.25 535.5C720.583 543.167 714.583 550.333 707.25 557C699.917 563.667 691.083 569.167 680.75 573.5C670.417 577.833 658.417 580 644.75 580C627.25 580 611.583 576.5 597.75 569.5C583.917 562.5 573 552.917 565 540.75C557 528.583 553 514.75 553 499.25C553 484.917 555.667 472.25 561 461.25C566.333 450.25 574.25 441 584.75 433.5C595.25 425.833 608.25 420.083 623.75 416.25C639.417 412.25 657.333 410.25 677.5 410.25H722ZM922.25 575H855.75V289.5C855.75 267.167 860.25 248.333 869.25 233C878.417 217.5 891.5 205.75 908.5 197.75C925.667 189.75 946.083 185.75 969.75 185.75C983.583 185.75 996.917 187.167 1009.75 190C1022.75 192.667 1036.08 196.167 1049.75 200.5L1040 254C1031.17 251.167 1021.5 248.5 1011 246C1000.67 243.5 988.417 242.25 974.25 242.25C956.75 242.25 943.667 246.25 935 254.25C926.5 262.25 922.25 274 922.25 289.5V575ZM976.25 304.5V352H815V304.5H976.25ZM1080.75 304.5V575H1014.5V304.5H1080.75ZM1307 517.5V191H1373.5V575H1313.5L1307 517.5ZM1133.25 443V437.75C1133.25 417.083 1135.58 398.333 1140.25 381.5C1145.08 364.5 1152.08 349.917 1161.25 337.75C1170.42 325.583 1181.5 316.167 1194.5 309.5C1207.67 302.833 1222.58 299.5 1239.25 299.5C1255.42 299.5 1269.5 302.75 1281.5 309.25C1293.67 315.75 1304 325 1312.5 337C1321.17 349 1328.08 363.25 1333.25 379.75C1338.42 396.083 1342.17 414.083 1344.5 433.75V448C1342.17 467.167 1338.42 484.75 1333.25 500.75C1328.08 516.75 1321.17 530.75 1312.5 542.75C1304 554.583 1293.67 563.75 1281.5 570.25C1269.33 576.75 1255.08 580 1238.75 580C1222.25 580 1207.42 576.583 1194.25 569.75C1181.25 562.917 1170.17 553.333 1161 541C1152 528.667 1145.08 514.167 1140.25 497.5C1135.58 480.833 1133.25 462.667 1133.25 443ZM1199.5 437.75V443C1199.5 454.667 1200.5 465.583 1202.5 475.75C1204.5 485.917 1207.75 494.917 1212.25 502.75C1216.75 510.417 1222.5 516.417 1229.5 520.75C1236.67 525.083 1245.33 527.25 1255.5 527.25C1268.5 527.25 1279.17 524.417 1287.5 518.75C1296 512.917 1302.58 505 1307.25 495C1311.92 484.833 1314.92 473.417 1316.25 460.75V421.5C1315.58 411.5 1313.83 402.25 1311 393.75C1308.33 385.25 1304.5 377.917 1299.5 371.75C1294.67 365.583 1288.67 360.75 1281.5 357.25C1274.33 353.75 1265.83 352 1256 352C1245.83 352 1237.17 354.25 1230 358.75C1222.83 363.083 1217 369.167 1212.5 377C1208 384.833 1204.67 393.917 1202.5 404.25C1200.5 414.583 1199.5 425.75 1199.5 437.75ZM1595.5 517.5V191H1662V575H1602L1595.5 517.5ZM1421.75 443V437.75C1421.75 417.083 1424.08 398.333 1428.75 381.5C1433.58 364.5 1440.58 349.917 1449.75 337.75C1458.92 325.583 1470 316.167 1483 309.5C1496.17 302.833 1511.08 299.5 1527.75 299.5C1543.92 299.5 1558 302.75 1570 309.25C1582.17 315.75 1592.5 325 1601 337C1609.67 349 1616.58 363.25 1621.75 379.75C1626.92 396.083 1630.67 414.083 1633 433.75V448C1630.67 467.167 1626.92 484.75 1621.75 500.75C1616.58 516.75 1609.67 530.75 1601 542.75C1592.5 554.583 1582.17 563.75 1570 570.25C1557.83 576.75 1543.58 580 1527.25 580C1510.75 580 1495.92 576.583 1482.75 569.75C1469.75 562.917 1458.67 553.333 1449.5 541C1440.5 528.667 1433.58 514.167 1428.75 497.5C1424.08 480.833 1421.75 462.667 1421.75 443ZM1488 437.75V443C1488 454.667 1489 465.583 1491 475.75C1493 485.917 1496.25 494.917 1500.75 502.75C1505.25 510.417 1511 516.417 1518 520.75C1525.17 525.083 1533.83 527.25 1544 527.25C1557 527.25 1567.67 524.417 1576 518.75C1584.5 512.917 1591.08 505 1595.75 495C1600.42 484.833 1603.42 473.417 1604.75 460.75V421.5C1604.08 411.5 1602.33 402.25 1599.5 393.75C1596.83 385.25 1593 377.917 1588 371.75C1583.17 365.583 1577.17 360.75 1570 357.25C1562.83 353.75 1554.33 352 1544.5 352C1534.33 352 1525.67 354.25 1518.5 358.75C1511.33 363.083 1505.5 369.167 1501 377C1496.5 384.833 1493.17 393.917 1491 404.25C1489 414.583 1488 425.75 1488 437.75ZM1786.5 362.25V575H1720.5V304.5H1782.5L1786.5 362.25ZM1776 430H1756.5C1756.67 410.333 1759.33 392.5 1764.5 376.5C1769.67 360.5 1776.92 346.75 1786.25 335.25C1795.75 323.75 1807 314.917 1820 308.75C1833 302.583 1847.5 299.5 1863.5 299.5C1876.5 299.5 1888.25 301.333 1898.75 305C1909.25 308.667 1918.25 314.5 1925.75 322.5C1933.42 330.5 1939.25 341 1943.25 354C1947.42 366.833 1949.5 382.667 1949.5 401.5V575H1883V401C1883 388.667 1881.17 378.917 1877.5 371.75C1874 364.583 1868.83 359.5 1862 356.5C1855.33 353.5 1847.08 352 1837.25 352C1827.08 352 1818.17 354.083 1810.5 358.25C1803 362.25 1796.67 367.833 1791.5 375C1786.5 382.167 1782.67 390.417 1780 399.75C1777.33 409.083 1776 419.167 1776 430ZM2156.75 517.5V392.75C2156.75 383.583 2155.17 375.667 2152 369C2148.83 362.333 2144 357.167 2137.5 353.5C2131 349.833 2122.75 348 2112.75 348C2103.92 348 2096.17 349.5 2089.5 352.5C2083 355.5 2078 359.75 2074.5 365.25C2071 370.583 2069.25 376.75 2069.25 383.75H2003C2003 372.583 2005.67 362 2011 352C2016.33 341.833 2023.92 332.833 2033.75 325C2043.75 317 2055.67 310.75 2069.5 306.25C2083.5 301.75 2099.17 299.5 2116.5 299.5C2137 299.5 2155.25 303 2171.25 310C2187.42 316.833 2200.08 327.167 2209.25 341C2218.58 354.833 2223.25 372.25 2223.25 393.25V511.25C2223.25 524.75 2224.08 536.333 2225.75 546C2227.58 555.5 2230.25 563.75 2233.75 570.75V575H2166.5C2163.33 568.167 2160.92 559.5 2159.25 549C2157.58 538.333 2156.75 527.833 2156.75 517.5ZM2166 410.25L2166.5 449.5H2124.75C2114.42 449.5 2105.33 450.583 2097.5 452.75C2089.67 454.75 2083.25 457.75 2078.25 461.75C2073.25 465.583 2069.5 470.25 2067 475.75C2064.5 481.083 2063.25 487.167 2063.25 494C2063.25 500.667 2064.75 506.667 2067.75 512C2070.92 517.333 2075.42 521.583 2081.25 524.75C2087.25 527.75 2094.25 529.25 2102.25 529.25C2113.92 529.25 2124.08 526.917 2132.75 522.25C2141.42 517.417 2148.17 511.583 2153 504.75C2157.83 497.917 2160.42 491.417 2160.75 485.25L2179.75 513.75C2177.42 520.583 2173.92 527.833 2169.25 535.5C2164.58 543.167 2158.58 550.333 2151.25 557C2143.92 563.667 2135.08 569.167 2124.75 573.5C2114.42 577.833 2102.42 580 2088.75 580C2071.25 580 2055.58 576.5 2041.75 569.5C2027.92 562.5 2017 552.917 2009 540.75C2001 528.583 1997 514.75 1997 499.25C1997 484.917 1999.67 472.25 2005 461.25C2010.33 450.25 2018.25 441 2028.75 433.5C2039.25 425.833 2052.25 420.083 2067.75 416.25C2083.42 412.25 2101.33 410.25 2121.5 410.25H2166Z" fill="white"/>
</svg>
